<?xml version="1.0" encoding="UTF-8"?>
<svg id="Layer_1" data-name="Layer 1" xmlns="http://www.w3.org/2000/svg" viewBox="0 0 329.74 329.74">
  <defs>
    <style>
      .cls-1 {
        fill: #f4a25c;
      }
    </style>
  </defs>
  <path class="cls-1" d="M223.93,128.18c-22.5-19.86-63.01-17.46-68-16.95h0v89.76c-4.74-.08-11.14-.6-17.88-2.39v-87.37h-17.88v78.97c-.86-.65-1.7-1.32-2.53-2.04-10.19-8.99-15.35-22.84-15.35-41.16h-17.88c0,23.67,7.2,42.03,21.4,54.57,17.02,15.03,39.52,17.31,51.62,17.31,3.9,0,15.16-.24,16.38-.36h0v-89.76c4.74.08,11.14.6,17.88,2.39v51.61h17.88v-43.21c.86.65,1.7,1.32,2.53,2.04,10.19,8.99,15.35,22.84,15.35,41.16h17.88c0-23.67-7.2-42.03-21.4-54.57Z"/>
</svg>
